<svg width="27" height="22" fill="none" xmlns="http://www.w3.org/2000/svg"><path d="M26.721 2.613c-.966.43-2.018.74-3.102.86a5.51 5.51 0 002.37-3.06 10.448 10.448 0 01-3.42 1.341A5.377 5.377 0 0020.78.455 5.24 5.24 0 0018.633 0c-2.985 0-5.387 2.493-5.387 5.552 0 .43.05.86.133 1.273-4.47-.241-8.458-2.441-11.109-5.81a5.638 5.638 0 00-.733 2.802c0 1.927.951 3.626 2.402 4.625a5.315 5.315 0 01-2.436-.706v.068c0 2.698 1.851 4.934 4.319 5.448-.464.124-.94.188-1.419.189-.35 0-.682-.036-1.017-.085.682 2.2 2.67 3.798 5.036 3.85a10.6 10.6 0 01-6.689 2.373c-.451 0-.869-.017-1.301-.069A14.934 14.934 0 008.706 22c9.908 0 15.33-8.455 15.33-15.794 0-.24 0-.481-.016-.722a11.801 11.801 0 002.701-2.87z" fill="#fff"/></svg>